# xmcd
# Track frame offsets:
# 150
# 15702
# 28862
# 42817
# 62985
# 77890
# 91640
# 104375
# 117690
# 131045
# 144930
# 168562
# 185335
# 203160
# 217480
# 228860
# 241817
# 258162
# 272775
# 283852
#
# Disc length: 4009 seconds
# Revision: 1
# Processed by: cddbd v1.4PL0 Copyright (c) Steve Scherf et al.
# Submitted via: VisiTrax 2.9.5.180 - For more info visit www.synapsa.com
#
DISCID=280fa714
DTITLE=Eri Esitt‰ji‰ - L‰nnen Lokarit
DYEAR=2002
DGENRE=
TTITLE0=Mika Sundqvist and V-M J‰rvenp‰‰ - L‰nnen Lokari
TTITLE1=Pekka Loukiala - Kohtalon t‰hti
TTITLE2=Kari Veps‰ - Mua ‰l‰ hylk‰‰
TTITLE3=Oski and Los Scobes - Luolassa Sierra Nevadan
TTITLE4=Jaakko Teppo - Huuliharppukostaja
TTITLE5=Jarno Sarjanen - Peluri
TTITLE6=Petri Hohenthal - Tyhj‰n lompakon Blues
TTITLE7=Mika Sundqvist, Tony Aare and V-M J‰rvenp‰‰ - On ihmeen hyv‰ kotiin tull
TTITLE7=a taas
TTITLE8=Tapio Heinonen - Philadelphia 1776
TTITLE9=Tony Montana - Mun sormuksein
TTITLE10=Jyrki H‰rk‰nen - Yksin‰isten Kaupunki
TTITLE11=Taivassatama - Kaktuspiikki
TTITLE12=Kari Veps‰ - El Dorado
TTITLE13=Tapio Heinonen - Preerian t‰htitaivas
TTITLE14=Nummisuutarit - Kullankaivaja Tim
TTITLE15=Jarno Sarjanen - Johnny mua muistathan
TTITLE16=Mika Sundqvist, Tony Aare and V-M J‰rvenp‰‰ - Baarin tyttˆ, unelmanainen
TTITLE17=K‰ntty and Kojootit - Jerry Cotton
TTITLE18=Jarno Sarjanen - Kiven sis‰ll‰
TTITLE19=Jukka Raitanen - Vangin toive
EXTD=
EXTT0=
EXTT1=
EXTT2=
EXTT3=
EXTT4=
EXTT5=
EXTT6=
EXTT7=
EXTT8=
EXTT9=
EXTT10=
EXTT11=
EXTT12=
EXTT13=
EXTT14=
EXTT15=
EXTT16=
EXTT17=
EXTT18=
EXTT19=
PLAYORDER=
